<svg xmlns="http://www.w3.org/2000/svg" width="348" height="106" viewBox="0 0 348 106">
  <g id="グループ_3" data-name="グループ 3" transform="translate(-796 -7582)">
    <path id="logotype" d="M-106.811-6306.976c-.656-1.837-.131-5.906-.131-8v-4.068c0-1.444-.262-3.02.131-3.937,1.047-2.884,5.638-2.491,6.162.657a56.755,56.755,0,0,1,0,6.691v6.689c1.443.132,3.277,0,4.982.132,0,.524-.525,1.181-.787,1.837s-.656,1.311-.918,1.965a26.731,26.731,0,0,0-3.51-.032c-.582.022-1.146.043-1.682.043C-104.555-6305-106.153-6305.292-106.811-6306.976Zm127.843,1.965v-4.065a6.791,6.791,0,0,0-.787,1.706H16.05c.787-2.1,1.574-4.2,2.361-6.429H16.443c-.131-.917,0-2.229-.131-3.279H20.9c.131-.656,0-1.575.131-2.363-.656-.13-1.572,0-2.359-.13-.131.261-.131.525-.393.788h-3.8c-.393-.131.262-.526.131-.918H13.033c1.049,3.148,2.23,6.034,3.41,9.183-.918.132-2.23,0-3.279.132-.131,1.575,0,3.674-.131,5.377H8.707v-5.246c-1.049-.131-2.361,0-3.541-.131,1.049-3.151,2.361-6.036,3.41-9.184-.656-.131-1.705,0-2.623-.131v-2.624H8.576c-.525-3.542,5.113-3.806,4.457,0a4.7,4.7,0,0,0,1.543.064,3.365,3.365,0,0,1,1.343.066c.787-.654,1.312-2.754,2.623-3.016,1.312-.132,1.834.918,1.312,2.228.262.134.785,0,1.047.134-.262-3.018,4.722-3.018,4.459,0h3.017v3.278H25.491c-.131.657,0,1.575-.131,2.362,1.312.131,3.017,0,4.588.131v3.279a6.271,6.271,0,0,1-1.572,0c.654,2.231,1.572,4.2,2.228,6.429H26.409c-.262-.918-.656-1.837-.918-2.755-.131,1.575,0,3.412-.131,5.115Zm-33.83,0v-6.558a13.035,13.035,0,0,0-2.359,1.18,27.811,27.811,0,0,0-3.739-.067,27.994,27.994,0,0,1-3.735-.065c.393-.919,1.572-1.312,2.359-1.706,4.2-2.36,8.654-4.984,12.982-7.346a42.529,42.529,0,0,1,5.244-2.885c1.574-.655,3.017,1.049,2.623,2.622-.262,1.182-2.1,1.838-3.148,2.363-1.312.656-2.361,1.314-3.539,1.968v10.494Zm-28.321,0c1.049-3.278,2.1-6.428,3.146-9.706-2.621-.262-5.638-.131-8.392-.131.262-.919-.131-2.492.131-3.412h17.308c1.967,0,4.328-.263,5.64.13,1.441.4,1.441,2.756.262,3.151a9.713,9.713,0,0,1-4.112.169,10.6,10.6,0,0,0-2.971-.039c-1.309,3.147-2.228,6.69-3.408,9.837Zm-19.013,0v-9.575c-.787,0-1.312,1.047-2.361,1.182a18.545,18.545,0,0,1-3.8,0,16.316,16.316,0,0,1-3.672-.135,6.1,6.1,0,0,1,2.361-1.7c4.195-2.362,8.654-4.854,12.849-7.347a50.481,50.481,0,0,1,5.115-2.887,2.115,2.115,0,0,1,2.752,2.754c-.262.92-1.834,1.574-2.883,2.1-1.18.655-2.23,1.18-3.148,1.706v13.9Zm-61.5,0c1.574-4.2,3.41-9.181,5.115-13.643.918-2.363,1.441-6.034,4.326-6.3a2.815,2.815,0,0,1,3.148,2.884c0,1.313-.918,3.02-1.312,4.462-1.443,4.065-3.148,8.658-4.459,12.593Zm-24.651,0c-1.312-.131-2.883,0-4.326-.131-.393-1.442-1.18-2.491-1.574-3.935h3.67v-6.821h-4.064c-1.312,3.672-2.623,7.346-4.066,10.756a52.116,52.116,0,0,1-6.424-.131c1.312-3.541,2.623-7.085,3.8-10.756h-3.8a13.5,13.5,0,0,1,.131-3.282h14.292c.787-1.311,2.23-2.49,4.066-1.706.787.4,1.18,1.445,1.705,1.706a3.663,3.663,0,0,0,1.8.032,3.716,3.716,0,0,1,1.476-.032,13.493,13.493,0,0,1-.131,3.282H-143c-.262,4.065,1.574,10.363-2.23,11.018Zm55.86-.131c.656-2.753,1.572-6.952,2.359-10.231.656-2.231.918-4.33,3.41-4.593a3.289,3.289,0,0,1,3.933,2.757,9.308,9.308,0,0,1-.525,3.148c-.654,3.018-1.31,5.9-1.834,8.92Zm-85.1,0c1.309-3.935,2.883-7.478,4.064-11.413-.656-.786-2.361-.524-4.064-.524-1.574,0-3.935-.262-4.59.262-1.18.919-.131,3.148-.525,4.853h-6.949c.393-3.146-1.049-7.608,1.574-8.4a10.414,10.414,0,0,1,3.866-.138,17.271,17.271,0,0,0,3.739.007c-.131-2.622.393-4.46,2.623-4.591,2.359-.262,3.539,1.706,3.014,4.46a22.486,22.486,0,0,0,2.9.035c3.048-.092,5.981-.183,5.488,3.377a16.644,16.644,0,0,1-1.049,3.018c-1.047,2.885-2.359,6.427-3.408,9.05Zm-56.624-.088c-.8-.039-1.643-.078-2.513-.043a13.486,13.486,0,0,1-1.967-3.541,28.222,28.222,0,0,0,3.408-.132v-6.821c0-4.461-.916-9.183,2.885-9.577,4.853-.263,3.8,5.248,3.8,9.971,0,3.016.656,7.215-.525,8.92-.778,1.06-1.975,1.281-3.425,1.281C-231-6305.171-231.56-6305.2-232.143-6305.229Zm283.18-.239a9.42,9.42,0,0,1-2.731-.064,3.87,3.87,0,0,1-1.836-1.969c-.525-1.706-.787-4.066-1.309-6.167-.393-2.229-.918-4.461-1.312-6.167h-12.2v-3.148H43.324c.393-3.016,5.244-3.148,5.506,0h2.23c.131-2.1,3.017-2.623,3.8-.917.525,1.05,0,2.359.131,3.934H49.224c.656,3.542,1.443,7.084,2.23,10.5,1.049.657,2.883.657,4.457.919a3.53,3.53,0,0,1-.787,1.575c-.393.523-.787,1.177-1.047,1.575A11.574,11.574,0,0,0,51.037-6305.468Zm-19.384-3.739c.787-.263,1.705-.394,2.623-.655v-3.937a8.391,8.391,0,0,0-2.623-.129v-3.28h11.54v3.28H40.045a8.592,8.592,0,0,0-.131,2.622c1.312-.132,2.23-.656,3.41-.787v3.542c-3.935.918-7.736,1.968-11.671,2.886ZM-204.63-6307.5c-.262-1.312.787-2.755,1.312-3.805.525-1.181.918-2.754,1.705-3.279a2.2,2.2,0,0,1,3.277,1.047c.393,1.576-.918,3.019-1.049,4.593h4.328c-.131-.917-1.18-1.706-1.312-2.755a2.174,2.174,0,0,1,3.541-1.968,9.083,9.083,0,0,1,1.572,2.492c.656,1.313,1.574,2.494,1.18,3.937-.656,1.967-4.326,1.441-7.08,1.441-1.269,0-2.637.119-3.852.119C-202.93-6305.679-204.469-6305.975-204.63-6307.5Zm299.223,1.7c.131-1.177,0-2.49.131-3.409H97.87c-.131-3.281.131-6.821-.131-9.971a1.458,1.458,0,0,0-.622-.024,3.5,3.5,0,0,1-1.343-.108v-2.886c.656-.13,1.572,0,2.1-.13-.262-2.1.525-3.148,1.967-3.542h1.049c1.574.393,2.361,1.574,2.1,3.672h1.967a11.791,11.791,0,0,1,0,3.018h-1.967v9.84c.918.131,2.1,0,3.015.131v3.409Zm-8.392,0v-6.559H82.922a7.9,7.9,0,0,1-1.049-2.752,9.747,9.747,0,0,1,2.111,0,4.551,4.551,0,0,0,3-.4,2.352,2.352,0,0,0-.131-3.674,5.415,5.415,0,0,0-2.8-.25,11.537,11.537,0,0,1-2.319-.013,10.413,10.413,0,0,1,.131-2.885h4.459c-.393-1.967.131-3.28,1.574-3.673h.916c1.443.393,1.967,1.706,1.705,3.673a7.807,7.807,0,0,1,2.492.13v3.937a19.74,19.74,0,0,0,0,3.938c.131.522.656.654.787,1.309.262.394.131.788.131,1.445H90.658c-.262,1.706.131,4.066-.131,5.77Zm-298.3-.129v-3.805c-1.18,0-2.23,0-2.623-.787.262-2.884,1.312-5.115,1.836-7.74-.393-.13-1.312,0-1.836-.13v-3.151h2.623c.393-1.571,1.18-4.591,3.148-3.277.916.655.916,2.1,1.309,3.277h2.885v3.281h-1.967c.787,2.887,1.574,5.64,2.23,8.526h-2.492c-.131,1.051,0,2.626-.131,3.805Zm269.457-.655c-.262-1.574.918-2.493,1.705-3.279.787-.919,1.705-1.706,2.492-2.625H56.566c0-.784-.262-2.49.131-2.753H80.168a9.719,9.719,0,0,0-.131,2.753H74.53c.525,1.312,4.459,2.231,4.853,4.068.654,2.887-2.885,2.361-5.509,2.361H62.468c-.908,0-1.844.085-2.692.085A3.647,3.647,0,0,1,57.353-6306.583Zm8.916-3.15c-.131.263-.656.526-.525.788h6.031c.393-1.18.787-2.23,1.18-3.412H68.893C68.106-6311.568,67.057-6310.52,66.27-6309.733Zm-289.388-.655c.393-4.067-1.312-10.628,2.361-11.153,5.113-.786,2.885,6.824,3.41,11.153Zm-18.882,0v-9.84a3.55,3.55,0,0,1,2.23-1.313c4.853-.39,2.754,7.085,3.017,11.153Zm161.937-.132c1.312-3.542,2.623-7.084,3.935-10.757h-16v-3.017c0-.133,0-.262.131-.262h18.1c2.228,0,4.588-.262,5.375,1.05.525.917-.131,2.359-.525,3.41-1.18,3.28-2.361,6.428-3.541,9.576Zm-57.169-1.048a9.477,9.477,0,0,1,.131-2.754h12.589v2.754Zm196.685-4.723v-2.755H56.96c2.23-1.575,4.853-3.411,7.343-4.984,1.443-.919,3.148-2.361,5.246-1.576a16.639,16.639,0,0,1,2.49,1.706c2.361,1.574,5.115,3.279,7.476,4.854a6.966,6.966,0,0,1-2.361.131,8.37,8.37,0,0,0-.131,2.624Zm5.638-4.2a20.106,20.106,0,0,0-2.49,1.836c3.8-.13,7.736,0,11.406-.13-.918-.657-1.705-1.051-2.623-1.706a8.211,8.211,0,0,0-2.621-1.706,2.125,2.125,0,0,0-.377-.035C67.111-6322.23,66.046-6321.087,65.089-6320.49Zm-261.459-.787c-1.18,1.574-2.1,3.28-3.279,4.853-1.572,0-3.408-.131-5.113,0,1.049-1.836,2.361-3.542,3.41-5.249h4.588a1.947,1.947,0,0,0-.393-.916c-1.836.131-3.014-.132-3.014-1.442.087-1.4,2.038-1.284,3.991-1.167a12.784,12.784,0,0,0,2.7-.015c1.443,2.885,3.015,5.771,4.588,8.657a13.584,13.584,0,0,1-2.719.106c-.754-.017-1.532-.031-2.263.024C-194.664-6318.129-195.582-6319.7-196.369-6321.276Zm166.263.26H-42.431v-3.146c0-.131,0-.264.131-.264h12.062c2.23,0,4.853-.523,4.984,1.577.1,1.646-1.239,1.861-2.948,1.861C-28.805-6320.988-29.456-6321.016-30.106-6321.016Z" transform="translate(1038.001 13992.999)" fill="#fff"/>
    <path id="logomark" d="M-328.128,2221.928c-.249-.245-1.246-.745-1.5-.993-3.734-2.487-11.705-9.2-11.705-19.15,0-11.192,10.71-18.655,13.449-20.4.5-.25,16.437-.25,16.437-.25s-15.94,7.212-15.94,20.894c0,11.689,16.439,19.649,16.439,19.649s-10.642.317-15.183.317A12.825,12.825,0,0,1-328.128,2221.928Zm-31.133-.745V2181.14h13.449v40.044Zm54.046-9.948-2.988-8.954-3.239,8.954h-2.242v-.249l-5.727-15.172h-1v-1.245h7.473v1.245h-2.242l3.983,9.2,1.993-5.472-1.493-3.729h-1v-1h7.222v1.245h-1.244s2.988,8.953,2.988,8.705,2.739-7.461,2.739-7.461l-.5-1.244h-1.744v-.993H-296v.993h-1.244l-5.978,15.172ZM-362,2169.7a9.564,9.564,0,0,1,9.713-9.7,9.719,9.719,0,0,1,9.712,9.7,9.884,9.884,0,0,1-9.712,9.7A9.719,9.719,0,0,1-362,2169.7Zm24.408,7.215v-13.433h29.638s5.727,1.742,5.727,6.717c0,5.223-5.727,6.715-5.727,6.715Z" transform="translate(1299 5422)" fill="#fff"/>
  </g>
</svg>
